<svg version="1.1" xmlns="http://www.w3.org/2000/svg" xmlns:xlink="http://www.w3.org/1999/xlink"
height="24px"
x="0px" y="0px" viewBox="0 0 1000 1000" enable-background="new 0 0 1000 1000" xml:space="preserve"
class="widget-social__link-icon icon icon-bitbucket">
<path d="M936.1,63.9C900.2,28,856.9,10,806.3,10H193.8c-50.6,0-93.9,18-129.8,53.9C28,99.8,10,143.1,10,193.7v612.5c0,50.6,18,93.9,53.9,129.8C99.9,972,143.1,990,193.8,990h612.5c50.6,0,93.9-18,129.8-53.9C972,900.1,990,856.9,990,806.2V193.7C990,143.1,972,99.8,936.1,63.9z M588.7,151.6h42.8v173.5c0,10.2,0.2,15.7,0.6,16.6c0.4,6.8,3.8,10.2,10.2,10.2c8.5,0,17.4-6.6,26.8-19.8V151.6h42.8v236.1h-42.8h0v-25.5c-17.4,19.1-33.8,28.7-49.1,28.7c-13.6,0-22.8-5.7-27.4-17.2c-2.6-7.7-3.8-19.4-3.8-35.1V151.6L588.7,151.6z M427.3,228.2c0-24.7,4.5-43.2,13.4-55.5c11.5-16.2,28.1-24.2,49.8-24.2c20.8,0,37.4,8.1,49.8,24.2c8.9,12.3,13.4,30.8,13.4,55.5v82.9c0,25.5-4.5,44-13.4,55.5c-12.3,16.2-28.9,24.3-49.8,24.3c-21.7,0-38.3-8.1-49.8-24.3c-8.9-12.3-13.4-30.8-13.4-55.5V228.2z M312.4,70.6L346.2,195l32.5-124.4h47.9l-57.4,188.9h0v128.2H322V259.5c-4.7-23.4-14.5-57-29.4-100.8c-9.8-29.4-14.7-44-14.7-44l-15.3-44H312.4L312.4,70.6z M838.2,840.7c-4.3,18.3-13.3,33.8-27.1,46.6c-13.8,12.8-29.9,20.2-48.2,22.3c-58.3,6.4-145.9,9.6-262.9,9.6c-117,0-204.6-3.2-262.9-9.6c-18.3-2.1-34.3-9.6-48.2-22.3c-13.8-12.8-22.9-28.3-27.1-46.6c-8.5-35.7-12.8-91-12.8-165.9c0-73.6,4.3-128.9,12.8-165.9c4.3-18.7,13.3-34.4,27.1-46.9c13.8-12.6,30.1-19.9,48.8-22c57.8-6.4,145.3-9.6,262.2-9.6c117.4,0,205,3.2,262.9,9.6c18.3,2.1,34.4,9.5,48.5,22c14,12.5,23.2,28.2,27.4,46.9c8.1,35.3,12.1,90.6,12.1,165.9C850.9,749.7,846.7,805,838.2,840.7z"/><polygon points="201.4,556.8 251.2,556.8 251.2,826.7 298.4,826.7 298.4,556.8 349.4,556.8 349.4,512.1 201.4,512.1 "/><path d="M434.9,771.2c-9.4,13.2-18.3,19.8-26.8,19.8c-6,0-9.1-3.2-9.6-9.6c-0.4-0.8-0.6-6.4-0.6-16.6V592.5h-42.1v185c0,16.2,1.3,27.7,3.8,34.4c3.8,11.9,12.8,17.9,26.8,17.9c15.7,0,31.9-9.6,48.5-28.7v25.5h42.7V592.5h-42.7V771.2z"/><path d="M600.2,589.3c-15.3,0-29.8,8.5-43.4,25.5V512.1h-42.8v314.5h42.8v-23c14,17.4,28.5,26.2,43.4,26.2c17.4,0,28.7-8.9,33.8-26.8c3-8.9,4.5-24.5,4.5-46.6v-93.1c0-22.5-1.5-38.3-4.5-47.2C628.9,598.2,617.6,589.3,600.2,589.3z M596.4,759.7c0,20.8-6.2,31.2-18.5,31.3c-7.2,0-14.2-3.4-21.1-10.2V637.8c6.8-6.8,13.8-10.2,21.1-10.2c12.3,0,18.5,10.6,18.5,31.9V759.7z"/><path d="M755.2,759.4c0,4.5-0.1,8-0.3,10.5c-0.2,2.6-0.3,4-0.3,4.5c-2.5,11.1-8.9,16.6-19.1,16.6c-14.5,0-21.7-10.8-21.7-32.5v-41.5h84.9v-48.5c0-24.7-4.5-42.9-13.4-54.9c-11.5-16.2-28.1-24.3-49.8-24.3s-38.7,8.1-51,24.3c-8.5,11.5-12.8,29.8-12.8,54.9v82.3c0,25.1,4.5,43.4,13.4,54.9c12.3,16.2,29.6,24.3,51.7,24.3c22.5,0,39.6-8.5,51-25.5c5.1-7.7,8.3-16.2,9.6-25.5c0.8-6,1.3-15.1,1.3-27.4v-5.7v0h-43.4L755.2,759.4L755.2,759.4L755.2,759.4z M713.8,660.1c0-21.7,7-32.5,21.1-32.5c14,0,21.1,10.8,21.1,32.5v21.7h-42.1V660.1z"/><path d="M490.4,352c13.6,0,20.4-10.8,20.4-32.5v-99.5c0-22.1-6.8-33.2-20.4-33.2c-13.6,0-20.4,11.1-20.4,33.2v99.5C470,341.1,476.8,352,490.4,352z"/>
</svg>